<svg version="1.1" id="Layer_1" xmlns="http://www.w3.org/2000/svg" xmlns:xlink="http://www.w3.org/1999/xlink" x="0px" y="0px"
	 width="100%" viewBox="0 0 64 64" enable-background="new 0 0 64 64" xml:space="preserve">
<path fill="#000000" opacity="1.000000" stroke="none" 
	d="
M42.000156,65.000000 
	C28.000101,65.000000 14.500102,65.000000 1.000078,65.000000 
	C1.000052,43.666702 1.000052,22.333408 1.000026,1.000084 
	C22.333292,1.000056 43.666584,1.000056 64.999908,1.000028 
	C64.999939,22.333290 64.999939,43.666580 64.999969,64.999939 
	C57.500072,65.000000 50.000141,65.000000 42.000156,65.000000 
M14.008776,12.992609 
	C11.750784,12.992609 9.492793,12.992609 6.871843,12.992609 
	C7.082800,15.027994 7.232918,16.476383 7.536877,19.409079 
	C10.333682,13.566999 13.289856,14.273766 16.833782,17.473827 
	C16.833782,15.523705 16.833782,14.260128 17.164495,12.338658 
	C19.422899,10.202666 21.434938,10.318049 23.026144,13.790593 
	C23.171797,14.825317 23.317450,15.860042 23.325340,15.916096 
	C27.385929,15.916096 30.899406,15.916096 34.833130,15.916096 
	C34.833130,15.526471 34.833130,14.261080 35.178207,12.321898 
	C38.338234,9.002181 40.200928,11.974042 42.230286,14.164273 
	C43.282745,8.668568 42.091858,8.105891 33.127022,9.479423 
	C33.048775,10.631691 32.969959,11.792236 32.027832,12.992918 
	C29.721460,12.979333 27.415089,12.965748 25.013096,12.132659 
	C23.162052,5.749437 18.423586,10.505717 15.179276,8.770231 
	C15.045714,10.701473 14.967869,11.827089 14.008776,12.992609 
M41.841179,38.982647 
	C46.555508,38.982647 51.269833,38.982647 57.212719,38.982647 
	C52.422295,33.464790 47.491077,35.509190 42.744259,34.306957 
	C32.959705,34.306957 23.175154,34.306957 13.003866,34.306957 
	C13.100707,35.933041 13.189057,37.416565 13.216359,37.874996 
	C16.553625,37.874996 19.252699,37.839222 21.949434,37.902752 
	C22.546324,37.916813 23.152662,38.498287 23.724604,38.451473 
	C28.819561,38.034412 33.903519,37.467514 39.003403,37.145908 
	C39.633389,37.106178 40.337620,38.243824 41.841179,38.982647 
M48.984875,21.695520 
	C48.388969,21.252567 47.795197,20.426315 47.196850,20.422995 
	C33.936089,20.349365 20.674826,20.366661 7.432021,20.366661 
	C7.432021,22.254326 7.432021,24.054998 7.432021,25.083458 
	C9.616004,24.327732 11.523836,23.129669 13.455458,23.090000 
	C23.071863,22.892511 32.696918,22.886179 42.313110,23.088793 
	C44.416389,23.133106 46.495903,24.305252 48.753906,25.010307 
	C48.778305,24.764767 48.888248,23.658491 48.984875,21.695520 
M36.371418,27.000523 
	C28.725801,27.000523 21.080185,27.000523 13.093637,27.000523 
	C13.193085,28.510786 13.269635,29.673323 13.368786,31.179070 
	C17.972820,26.395782 23.155226,30.602993 27.985031,29.322344 
	C32.478310,28.130930 37.687382,29.639042 42.635307,29.962221 
	C42.635307,29.578485 42.635307,28.383762 42.635307,27.000557 
	C40.636703,27.000557 38.980618,27.000557 36.371418,27.000523 
M11.026115,48.962032 
	C7.826662,47.917835 7.826662,47.917835 7.346547,50.432312 
	C17.832710,50.432312 28.349470,50.432312 38.866234,50.432312 
	C38.868832,49.953514 38.871433,49.474712 38.874035,48.995914 
	C29.896950,48.995914 20.919865,48.995914 11.026115,48.962032 
M28.448248,45.000675 
	C31.783735,45.000675 35.119221,45.000675 38.454708,45.000675 
	C38.466564,44.420586 38.478420,43.840496 38.490280,43.260406 
	C30.174753,43.260406 21.859226,43.260406 12.853410,43.260406 
	C13.697183,43.809116 14.588365,44.870758 15.528906,44.916451 
	C19.500175,45.109402 23.486149,44.999695 28.448248,45.000675 
M40.631542,55.085117 
	C44.751984,57.984238 49.146427,57.595585 53.553452,55.999958 
	C54.180569,55.772903 54.491558,54.672733 54.948860,53.976665 
	C54.303047,53.663414 53.661671,53.089794 53.010704,53.078701 
	C48.400703,53.000149 43.788738,53.036915 39.140018,53.036915 
	C39.274780,53.263817 39.657036,53.907436 40.631542,55.085117 
M44.977425,49.474133 
	C45.853943,49.625401 47.197041,50.208763 47.526299,49.853222 
	C48.960060,48.305012 50.098839,46.483624 51.344772,44.761463 
	C50.987423,44.535461 50.630074,44.309460 50.272724,44.083454 
	C47.558723,44.708778 44.844727,45.334103 41.739544,46.049561 
	C42.907513,47.302059 43.693707,48.145153 44.977425,49.474133 
z"/>
<path fill="#5255FF" opacity="1.000000" stroke="none" 
	d="
M48.991531,22.123867 
	C48.888248,23.658491 48.778305,24.764767 48.753906,25.010307 
	C46.495903,24.305252 44.416389,23.133106 42.313110,23.088793 
	C32.696918,22.886179 23.071863,22.892511 13.455458,23.090000 
	C11.523836,23.129669 9.616004,24.327732 7.432021,25.083458 
	C7.432021,24.054998 7.432021,22.254326 7.432021,20.366661 
	C20.674826,20.366661 33.936089,20.349365 47.196850,20.422995 
	C47.795197,20.426315 48.388969,21.252567 48.991531,22.123867 
z"/>
<path fill="#8B3CFF" opacity="1.000000" stroke="none" 
	d="
M41.007446,38.835884 
	C40.337620,38.243824 39.633389,37.106178 39.003403,37.145908 
	C33.903519,37.467514 28.819561,38.034412 23.724604,38.451473 
	C23.152662,38.498287 22.546324,37.916813 21.949434,37.902752 
	C19.252699,37.839222 16.553625,37.874996 13.216359,37.874996 
	C13.189057,37.416565 13.100707,35.933041 13.003866,34.306957 
	C23.175154,34.306957 32.959705,34.306957 42.785301,34.930923 
	C42.220047,36.648552 41.613747,37.742218 41.007446,38.835884 
z"/>
<path fill="#6B4AFF" opacity="1.000000" stroke="none" 
	d="
M36.847977,27.000540 
	C38.980618,27.000557 40.636703,27.000557 42.635307,27.000557 
	C42.635307,28.383762 42.635307,29.578485 42.635307,29.962221 
	C37.687382,29.639042 32.478310,28.130930 27.985031,29.322344 
	C23.155226,30.602993 17.972820,26.395782 13.368786,31.179070 
	C13.269635,29.673323 13.193085,28.510786 13.093637,27.000523 
	C21.080185,27.000523 28.725801,27.000523 36.847977,27.000540 
z"/>
<path fill="#C524FF" opacity="1.000000" stroke="none" 
	d="
M11.484447,48.978973 
	C20.919865,48.995914 29.896950,48.995914 38.874035,48.995914 
	C38.871433,49.474712 38.868832,49.953514 38.866234,50.432312 
	C28.349470,50.432312 17.832710,50.432312 7.346547,50.432312 
	C7.826662,47.917835 7.826662,47.917835 11.484447,48.978973 
z"/>
<path fill="#AB2EFF" opacity="1.000000" stroke="none" 
	d="
M27.957497,45.000675 
	C23.486149,44.999695 19.500175,45.109402 15.528906,44.916451 
	C14.588365,44.870758 13.697183,43.809116 12.853410,43.260406 
	C21.859226,43.260406 30.174753,43.260406 38.490280,43.260406 
	C38.478420,43.840496 38.466564,44.420586 38.454708,45.000675 
	C35.119221,45.000675 31.783735,45.000675 27.957497,45.000675 
z"/>
<path fill="#D9ADFF" opacity="1.000000" stroke="none" 
	d="
M40.335419,54.818085 
	C39.657036,53.907436 39.274780,53.263817 39.140018,53.036915 
	C43.788738,53.036915 48.400703,53.000149 53.010704,53.078701 
	C53.661671,53.089794 54.303047,53.663414 54.948860,53.976665 
	C54.491558,54.672733 54.180569,55.772903 53.553452,55.999958 
	C49.146427,57.595585 44.751984,57.984238 40.335419,54.818085 
z"/>
<path fill="#79C3FF" opacity="1.000000" stroke="none" 
	d="
M41.424309,38.909264 
	C41.613747,37.742218 42.220047,36.648552 42.980736,35.269936 
	C47.491077,35.509190 52.422295,33.464790 57.212719,38.982647 
	C51.269833,38.982647 46.555508,38.982647 41.424309,38.909264 
z"/>
<path fill="#B829FF" opacity="1.000000" stroke="none" 
	d="
M44.728661,49.231194 
	C43.693707,48.145153 42.907513,47.302059 41.739544,46.049561 
	C44.844727,45.334103 47.558723,44.708778 50.272724,44.083454 
	C50.630074,44.309460 50.987423,44.535461 51.344772,44.761463 
	C50.098839,46.483624 48.960060,48.305012 47.526299,49.853222 
	C47.197041,50.208763 45.853943,49.625401 44.728661,49.231194 
z"/>
<path fill="#3262FF" opacity="1.000000" stroke="none" 
	d="
M34.833130,12.995687 
	C34.833130,14.261080 34.833130,15.526471 34.833130,15.916096 
	C30.899406,15.916096 27.385929,15.916096 23.325340,15.916096 
	C23.317450,15.860042 23.171797,14.825317 23.420187,13.389713 
	C24.245726,12.976609 24.677221,12.964386 25.108717,12.952163 
	C27.415089,12.965748 29.721460,12.979333 32.782974,12.984102 
	C33.969784,12.982087 34.401459,12.988887 34.833130,12.995687 
z"/>
<path fill="#2469FF" opacity="1.000000" stroke="none" 
	d="
M35.005669,12.658792 
	C34.401459,12.988887 33.969784,12.982087 33.214630,12.964035 
	C32.969959,11.792236 33.048775,10.631691 33.127022,9.479423 
	C42.091858,8.105891 43.282745,8.668568 42.230286,14.164273 
	C40.200928,11.974042 38.338234,9.002181 35.005669,12.658792 
z"/>
<path fill="#3361FF" opacity="1.000000" stroke="none" 
	d="
M16.833782,12.996552 
	C16.833782,14.260128 16.833782,15.523705 16.833782,17.473827 
	C13.289856,14.273766 10.333682,13.566999 7.536877,19.409079 
	C7.232918,16.476383 7.082800,15.027994 6.871843,12.992609 
	C9.492793,12.992609 11.750784,12.992609 14.773182,12.984052 
	C15.969653,12.982513 16.401718,12.989532 16.833782,12.996552 
z"/>
<path fill="#2369FF" opacity="1.000000" stroke="none" 
	d="
M16.999138,12.667604 
	C16.401718,12.989532 15.969653,12.982513 15.213806,12.964100 
	C14.967869,11.827089 15.045714,10.701473 15.179276,8.770231 
	C18.423586,10.505717 23.162052,5.749437 25.060905,12.542411 
	C24.677221,12.964386 24.245726,12.976609 23.490425,12.992147 
	C21.434938,10.318049 19.422899,10.202666 16.999138,12.667604 
z"/>
</svg>